#!OML:ASF E:\Mandelcareful walks\Project 1\Capture day 1\Session 1\Subject1.ASF
:FULLY-SPECIFIED
:DEGREES
359
root 4.99239 16.686 -0.686978 -175.16 -78.2873 180.622
lowerback 5.20264 -1.40574 -1.62703
upperback 3.22759 -2.02558 1.82954
thorax 0.527308 -1.09207 2.88531
lowerneck -17.3685 -12.7454 -15.8329
upperneck 21.3446 -16.2682 9.88642
head 12.0357 -7.61598 3.421
rclavicle -1.43125e-014 5.96354e-015
rhumerus -31.3587 1.39849 -84.9425
rradius 74.4603
rwrist -46.315
rhand 8.9768 -44.7652
rfingers 7.12502
rthumb 34.1552 -71.5144
lclavicle -1.43125e-014 5.96354e-015
lhumerus -34.2235 -35.5786 104.328
lradius 55.1632
lwrist 7.83628
lhand -9.40355 -8.829
lfingers 7.12502
lthumb 16.5579 20.4846
rfemur -6.2608 2.58 6.92335
rtibia 8.82591
rfoot -6.29757 -20.0003
rtoes -9.15771
lfemur -5.73427 3.22753 -5.9249
ltibia 22.5507
lfoot -17.4655 17.8625
ltoes -10.272
360
root 5.00918 16.6898 -0.671069 -174.692 -78.1102 180.25
lowerback 5.1273 -1.31281 -1.49788
upperback 3.38439 -1.90214 1.78856
thorax 0.717037 -1.03393 2.76022
lowerneck -17.6333 -12.621 -15.6468
upperneck 21.1368 -16.1303 10.128
head 11.9935 -7.50228 3.50009
rclavicle 4.4329e-014 0
rhumerus -31.1436 -0.422857 -84.0378
rradius 79.9144
rwrist -54.5075
rhand 9.56529 -43.8952
rfingers 7.12502
rthumb 34.7139 -70.5176
lclavicle 4.4329e-014 0
lhumerus -33.822 -35.9998 104.038
lradius 55.358
lwrist 8.07286
lhand -8.96365 -8.68666
lfingers 7.12502
lthumb 16.9814 20.591
rfemur -6.53779 2.58653 6.80159
rtibia 8.7721
rfoot -5.9483 -19.9526
rtoes -9.57793
lfemur -6.018 3.4426 -6.05658
ltibia 22.758
lfoot -17.4161 17.9349
ltoes -10.4366
361
root 5.01888 16.6929 -0.656105 -174.883 -77.9963 180.49
lowerback 5.19968 -1.2974 -1.33432
upperback 3.42503 -1.87912 1.84522
thorax 0.71377 -1.02215 2.72719
lowerneck -17.3491 -12.3894 -15.6634
upperneck 20.5329 -15.8953 10.6246
head 11.7268 -7.35963 3.74898
rclavicle 4.9398e-014 -1.98785e-014
rhumerus -30.7579 -2.07836 -83.1346
rradius 85.1305
rwrist -61.021
rhand 10.4839 -42.2575
rfingers 7.12502
rthumb 35.5852 -68.6749
lclavicle 4.9398e-014 -1.98785e-014
lhumerus -33.7227 -36.1274 103.931
lradius 55.4844
lwrist 8.54537
lhand -8.55106 -8.67015
lfingers 7.12502
lthumb 17.3786 20.5729
rfemur -6.63445 2.55785 6.82562
rtibia 8.6863
rfoot -5.70728 -19.8497
rtoes -10.0959
lfemur -6.20801 3.76507 -6.02501
ltibia 22.9484
lfoot -17.3084 17.744
ltoes -10.5716
362
root 5.01575 16.693 -0.643066 -175.237 -77.9273 180.783
lowerback 5.37923 -1.36726 -1.23936
upperback 3.37906 -1.97046 1.98216
thorax 0.573693 -1.06676 2.82517
lowerneck -17.2509 -12.2352 -15.5547
upperneck 20.5806 -15.7048 10.5238
head 11.6778 -7.28333 3.74025
rclavicle -6.95746e-015 -1.19271e-014
rhumerus -30.2008 -3.38617 -82.1694
rradius 89.6774
rwrist -64.9313
rhand 9.46778 -38.9732
rfingers 7.12502
rthumb 34.6214 -65.6169
lclavicle -6.95746e-015 -1.19271e-014
lhumerus -33.9928 -35.9838 104.053
lradius 55.7075
lwrist 9.19491
lhand -8.70217 -8.5068
lfingers 7.12502
lthumb 17.2331 20.7491
rfemur -6.48871 2.50933 6.84969
rtibia 8.52759
rfoot -5.52309 -19.7089
rtoes -10.3501
lfemur -6.19566 4.09362 -5.9846
ltibia 23.1229
lfoot -17.2084 17.4803
ltoes -10.5615
363
root 5.01355 16.6918 -0.627171 -174.707 -77.75 180.217
lowerback 4.50036 -1.3669 -1.01869
upperback 4.14356 -1.99078 1.82509
thorax 1.83897 -1.09939 2.50017
lowerneck -17.8431 -12.3974 -15.2713
upperneck 20.2109 -15.9231 10.7811
head 11.6818 -7.30275 3.7197
rclavicle -2.67365e-014 5.56597e-015
rhumerus -27.8625 -5.14044 -81.6311
rradius 93.2706
rwrist -66.961
rhand 7.38147 -34.3179
rfingers 7.12502
rthumb 32.6387 -61.3936
lclavicle -2.67365e-014 5.56597e-015
lhumerus -32.7368 -36.5264 102.964
lradius 55.9616
lwrist 9.9624
lhand -9.04983 -8.23263
lfingers 7.12502
lthumb 16.8985 21.0522
rfemur -6.48597 2.53457 6.63522
rtibia 8.35897
rfoot -5.08617 -19.6162
rtoes -10.9326
lfemur -6.17896 4.30626 -6.18418
ltibia 23.2648
lfoot -17.2055 17.4981
ltoes -10.477
364
root 5.02234 16.6942 -0.608036 -174 -77.3946 179.586
lowerback 4.65521 -1.39384 -1.10709
upperback 4.07154 -2.02766 1.8429
thorax 1.68408 -1.11774 2.575
lowerneck -18.0003 -12.3887 -15.1321
upperneck 20.525 -15.8944 10.5013
head 11.7849 -7.30226 3.59535
rclavicle -3.77691e-015 2.18663e-014
rhumerus -26.2075 -6.36021 -80.8823
rradius 96.1671
rwrist -68.4271
rhand 2.01967 -31.8944
rfingers 7.12502
rthumb 27.5234 -59.9026
lclavicle -3.77691e-015 2.18663e-014
lhumerus -32.7812 -35.9892 102.708
lradius 56.1924
lwrist 9.79825
lhand -9.15148 -8.21524
lfingers 7.12502
lthumb 16.8006 21.0779
rfemur -6.76278 2.70308 6.38547
rtibia 8.29394
rfoot -4.70816 -19.5258
rtoes -11.4654
lfemur -6.24215 4.47188 -6.44125
ltibia 23.3413
lfoot -17.33 17.6419
ltoes -10.4909
365
root 5.03568 16.6965 -0.592207 -173.697 -77.0642 179.337
lowerback 5.10018 -1.46286 -1.28825
upperback 3.81259 -2.11974 1.97023
thorax 1.18608 -1.16 2.82962
lowerneck -17.8714 -12.4183 -15.3105
upperneck 20.8738 -15.9242 10.3527
head 11.8992 -7.35108 3.56666
rclavicle -4.51241e-014 7.15625e-015
rhumerus -24.367 -7.55121 -80.0812
rradius 98.1361
rwrist -69.6813
rhand -3.43152 -28.8138
rfingers 7.12502
rthumb 22.2998 -57.5471
lclavicle -4.51241e-014 7.15625e-015
lhumerus -33.0497 -35.1945 102.67
lradius 56.292
lwrist 9.61202
lhand -9.16422 -8.19759
lfingers 7.12502
lthumb 16.7884 21.0966
rfemur -6.99282 2.86623 6.25856
rtibia 8.30901
rfoot -4.71244 -19.4091
rtoes -10.942
lfemur -6.28744 4.69232 -6.57995
ltibia 23.3863
lfoot -17.4301 17.6583
ltoes -10.6895
366
root 5.04931 16.6989 -0.577784 -173.135 -76.8182 178.817
lowerback 4.41466 -1.42652 -1.19124
upperback 4.37835 -2.08841 1.83231
thorax 2.14166 -1.1623 2.60015
lowerneck -18.1471 -12.7505 -15.2885
upperneck 20.6846 -16.3736 10.5215
head 11.9597 -7.51459 3.51725
rclavicle 2.47487e-014 1.19271e-014
rhumerus -21.185 -9.65404 -79.611
rradius 99.1426
rwrist -70.7702
rhand -7.11417 -26.4823
rfingers 7.12502
rthumb 18.761 -55.5975
lclavicle 2.47487e-014 1.19271e-014
lhumerus -31.8627 -35.3951 101.659
lradius 56.2829
lwrist 9.79536
lhand -8.957 -8.22941
lfingers 7.12502
lthumb 16.9878 21.0477
rfemur -7.18264 2.94007 6.06929
rtibia 8.30997
rfoot -4.74208 -19.3054
rtoes -10.2686
lfemur -6.37893 4.85359 -6.77275
ltibia 23.4403
lfoot -17.4564 17.7362
ltoes -10.5496
367
root 5.05721 16.6996 -0.563073 -172.29 -76.5688 177.967
lowerback 5.13751 -1.4619 -1.49637
upperback 3.86186 -2.12805 1.90021
thorax 1.22181 -1.16902 2.87495
lowerneck -17.4255 -12.7302 -15.4346
upperneck 21.0826 -16.3866 10.1152
head 11.9478 -7.61042 3.42117
rclavicle -3.37934e-015 3.18055e-015
rhumerus -19.8853 -11.0136 -78.5451
rradius 99.7694
rwrist -71.5835
rhand -8.18722 -25.5665
rfingers 7.12502
rthumb 17.7287 -54.7783
lclavicle -3.37934e-015 3.18055e-015
lhumerus -32.7235 -34.6892 102.049
lradius 56.3743
lwrist 9.53429
lhand -8.99979 -8.35283
lfingers 7.12502
lthumb 16.9466 20.9279
rfemur -7.32826 3.01025 5.77099
rtibia 8.33882
rfoot -4.76815 -19.1911
rtoes -10.062
lfemur -6.36936 4.93823 -7.06697
ltibia 23.4778
lfoot -17.5625 17.8599
ltoes -10.1737
368
root 5.05646 16.6963 -0.549478 -171.782 -76.2696 177.37
lowerback 4.51789 -1.4276 -1.36636
upperback 4.37473 -2.09193 1.67669
thorax 2.08077 -1.16519 2.54129
lowerneck -17.6335 -12.8855 -15.3517
upperneck 20.8047 -16.6474 10.4532
head 11.9465 -7.67249 3.46821
rclavicle -4.27387e-014 3.97569e-015
rhumerus -17.1706 -12.9356 -78.2487
rradius 99.7494
rwrist -71.7383
rhand -8.39507 -26.0631
rfingers 7.12502
rthumb 17.5287 -55.2928
lclavicle -4.27387e-014 3.97569e-015
lhumerus -31.7653 -35.0746 101.15
lradius 56.284
lwrist 9.55124
lhand -9.28579 -8.31928
lfingers 7.12502
lthumb 16.6713 20.9848
rfemur -7.38368 3.15236 5.50241
rtibia 8.43263
rfoot -4.87111 -19.0466
rtoes -9.99649
lfemur -6.18899 5.12318 -7.29946
ltibia 23.4899
lfoot -17.6633 17.9008
ltoes -10.1096
